<svg xmlns="http://www.w3.org/2000/svg" width="1920" height="1080" viewBox="0 0 1920 1080" role="img"><title>Higher rank wins</title><defs><pattern id="back" width="12" height="12" patternUnits="userSpaceOnUse"><path d="M0 6L6 0L12 6L6 12Z" fill="none" stroke="#8fa1c5" stroke-width="1"/></pattern><pattern id="felt" width="10" height="10" patternUnits="userSpaceOnUse"><path d="M1 2h1M6 7h1" stroke="#ffffff" stroke-opacity=".035"/></pattern></defs><rect x="0.00" y="0.00" width="1920.00" height="1080.00" rx="0" fill="#0b6b3a"/><rect x="0.00" y="0.00" width="1920.00" height="1080.00" rx="0" fill="url(#felt)"/><text x="120.00" y="138.00" font-family="Liberation Sans" font-size="58" font-weight="700" fill="#f1f3f5" text-anchor="start" opacity="1" xml:space="preserve">Higher rank wins</text><text x="120.00" y="196.00" font-family="Liberation Sans" font-size="28" font-weight="400" fill="#aeb6bf" text-anchor="start" opacity="1" xml:space="preserve">Aces high</text><g opacity="1"><rect x="466.50" y="419.00" width="160.00" height="225.50" rx="7" fill="#001e18" opacity="0.28"/><rect x="461.50" y="413.00" width="160.00" height="225.50" rx="7" fill="#fbfaf4" stroke="#c9c7bd" stroke-width="1.5"/><rect x="469.50" y="421.00" width="144.00" height="209.50" rx="2" fill="#223b72"/><rect x="473.50" y="425.00" width="136.00" height="201.50" rx="0" fill="url(#back)"/><rect x="478.50" y="430.00" width="126.00" height="191.50" rx="0" fill="none" stroke="#c5cfdf" stroke-width="1"/></g><g opacity="1"><rect x="621.00" y="419.00" width="160.00" height="225.50" rx="7" fill="#001e18" opacity="0.28"/><rect x="616.00" y="413.00" width="160.00" height="225.50" rx="7" fill="#fbfaf4" stroke="#c9c7bd" stroke-width="1.5"/><rect x="624.00" y="421.00" width="144.00" height="209.50" rx="2" fill="#223b72"/><rect x="628.00" y="425.00" width="136.00" height="201.50" rx="0" fill="url(#back)"/><rect x="633.00" y="430.00" width="126.00" height="191.50" rx="0" fill="none" stroke="#c5cfdf" stroke-width="1"/></g><text x="265.00" y="330.00" font-family="Liberation Sans" font-size="37" font-weight="700" fill="#ffffff" text-anchor="middle" opacity="1" xml:space="preserve">Player 1</text><g opacity="1"><rect x="195.00" y="406.00" width="150.00" height="212.00" rx="7" fill="#001e18" opacity="0.28"/><rect x="190.00" y="400.00" width="150.00" height="212.00" rx="7" fill="#fbfaf4" stroke="#c9c7bd" stroke-width="1.5"/><rect x="198.00" y="408.00" width="134.00" height="196.00" rx="2" fill="#223b72"/><rect x="202.00" y="412.00" width="126.00" height="188.00" rx="0" fill="url(#back)"/><rect x="207.00" y="417.00" width="116.00" height="178.00" rx="0" fill="none" stroke="#c5cfdf" stroke-width="1"/></g><g opacity="1"><rect x="197.00" y="403.00" width="150.00" height="212.00" rx="7" fill="#001e18" opacity="0.28"/><rect x="192.00" y="397.00" width="150.00" height="212.00" rx="7" fill="#fbfaf4" stroke="#c9c7bd" stroke-width="1.5"/><rect x="200.00" y="405.00" width="134.00" height="196.00" rx="2" fill="#223b72"/><rect x="204.00" y="409.00" width="126.00" height="188.00" rx="0" fill="url(#back)"/><rect x="209.00" y="414.00" width="116.00" height="178.00" rx="0" fill="none" stroke="#c5cfdf" stroke-width="1"/></g><g opacity="1"><rect x="199.00" y="400.00" width="150.00" height="212.00" rx="7" fill="#001e18" opacity="0.28"/><rect x="194.00" y="394.00" width="150.00" height="212.00" rx="7" fill="#fbfaf4" stroke="#c9c7bd" stroke-width="1.5"/><rect x="202.00" y="402.00" width="134.00" height="196.00" rx="2" fill="#223b72"/><rect x="206.00" y="406.00" width="126.00" height="188.00" rx="0" fill="url(#back)"/><rect x="211.00" y="411.00" width="116.00" height="178.00" rx="0" fill="none" stroke="#c5cfdf" stroke-width="1"/></g><text x="265.00" y="722.00" font-family="DejaVu Sans Mono" font-size="67" font-weight="700" fill="#ffffff" text-anchor="middle" opacity="1" xml:space="preserve">25</text><text x="265.00" y="762.00" font-family="Liberation Sans" font-size="27" font-weight="400" fill="#b9dac3" text-anchor="middle" opacity="1" xml:space="preserve">cards</text><text x="1655.00" y="330.00" font-family="Liberation Sans" font-size="37" font-weight="700" fill="#ffffff" text-anchor="middle" opacity="1" xml:space="preserve">Player 2</text><g opacity="1"><rect x="1585.00" y="406.00" width="150.00" height="212.00" rx="7" fill="#001e18" opacity="0.28"/><rect x="1580.00" y="400.00" width="150.00" height="212.00" rx="7" fill="#fbfaf4" stroke="#c9c7bd" stroke-width="1.5"/><rect x="1588.00" y="408.00" width="134.00" height="196.00" rx="2" fill="#223b72"/><rect x="1592.00" y="412.00" width="126.00" height="188.00" rx="0" fill="url(#back)"/><rect x="1597.00" y="417.00" width="116.00" height="178.00" rx="0" fill="none" stroke="#c5cfdf" stroke-width="1"/></g><g opacity="1"><rect x="1587.00" y="403.00" width="150.00" height="212.00" rx="7" fill="#001e18" opacity="0.28"/><rect x="1582.00" y="397.00" width="150.00" height="212.00" rx="7" fill="#fbfaf4" stroke="#c9c7bd" stroke-width="1.5"/><rect x="1590.00" y="405.00" width="134.00" height="196.00" rx="2" fill="#223b72"/><rect x="1594.00" y="409.00" width="126.00" height="188.00" rx="0" fill="url(#back)"/><rect x="1599.00" y="414.00" width="116.00" height="178.00" rx="0" fill="none" stroke="#c5cfdf" stroke-width="1"/></g><g opacity="1"><rect x="1589.00" y="400.00" width="150.00" height="212.00" rx="7" fill="#001e18" opacity="0.28"/><rect x="1584.00" y="394.00" width="150.00" height="212.00" rx="7" fill="#fbfaf4" stroke="#c9c7bd" stroke-width="1.5"/><rect x="1592.00" y="402.00" width="134.00" height="196.00" rx="2" fill="#223b72"/><rect x="1596.00" y="406.00" width="126.00" height="188.00" rx="0" fill="url(#back)"/><rect x="1601.00" y="411.00" width="116.00" height="178.00" rx="0" fill="none" stroke="#c5cfdf" stroke-width="1"/></g><text x="1655.00" y="722.00" font-family="DejaVu Sans Mono" font-size="67" font-weight="700" fill="#ffffff" text-anchor="middle" opacity="1" xml:space="preserve">25</text><text x="1655.00" y="762.00" font-family="Liberation Sans" font-size="27" font-weight="400" fill="#b9dac3" text-anchor="middle" opacity="1" xml:space="preserve">cards</text><text x="960.00" y="980.00" font-family="DejaVu Sans Mono" font-size="39" font-weight="400" fill="#ffffff" text-anchor="middle" opacity="1" xml:space="preserve">Pot: 2</text></svg>