<svg xmlns="http://www.w3.org/2000/svg" xmlns:xlink="http://www.w3.org/1999/xlink" width="1920" height="1080" viewBox="0 0 1920 1080" role="img"><title>Riffle shuffle</title><defs><pattern id="back" width="12" height="12" patternUnits="userSpaceOnUse"><path d="M0 6L6 0L12 6L6 12Z" fill="none" stroke="#8fa1c5" stroke-width="1"/></pattern><pattern id="felt" width="10" height="10" patternUnits="userSpaceOnUse"><path d="M1 2h1M6 7h1" stroke="#ffffff" stroke-opacity=".035"/></pattern><g id="cb"><g opacity="1"><rect x="5.00" y="6.00" width="240.00" height="336.00" rx="7" fill="#001e18" opacity="0.28"/><rect x="0.00" y="0.00" width="240.00" height="336.00" rx="7" fill="#fbfaf4" stroke="#c9c7bd" stroke-width="1.5"/><rect x="8.00" y="8.00" width="224.00" height="320.00" rx="2" fill="#223b72"/><rect x="12.00" y="12.00" width="216.00" height="312.00" rx="0" fill="url(#back)"/><rect x="17.00" y="17.00" width="206.00" height="302.00" rx="0" fill="none" stroke="#c5cfdf" stroke-width="1"/></g></g></defs><rect x="0" y="0" width="1920" height="1080" fill="#0b6b3a"/><rect x="0" y="0" width="1920" height="1080" fill="url(#felt)"/><use xlink:href="#cb" transform="translate(961.69 600.63) rotate(4.70) translate(-120 -168)"/><use xlink:href="#cb" transform="translate(941.96 603.09) rotate(-7.14) translate(-120 -168)"/><use xlink:href="#cb" transform="translate(963.81 601.36) rotate(3.35) translate(-120 -168)"/><use xlink:href="#cb" transform="translate(943.74 599.52) rotate(-3.71) translate(-120 -168)"/><use xlink:href="#cb" transform="translate(963.95 600.08) rotate(5.52) translate(-120 -168)"/><use xlink:href="#cb" transform="translate(948.02 600.22) rotate(-6.76) translate(-120 -168)"/><use xlink:href="#cb" transform="translate(944.33 599.52) rotate(-5.08) translate(-120 -168)"/><use xlink:href="#cb" transform="translate(962.52 600.91) rotate(2.58) translate(-120 -168)"/><use xlink:href="#cb" transform="translate(960.95 598.18) rotate(7.09) translate(-120 -168)"/><use xlink:href="#cb" transform="translate(963.70 596.89) rotate(6.31) translate(-120 -168)"/><use xlink:href="#cb" transform="translate(947.64 595.58) rotate(-6.74) translate(-120 -168)"/><use xlink:href="#cb" transform="translate(951.41 597.19) rotate(-6.01) translate(-120 -168)"/><use xlink:href="#cb" transform="translate(962.53 597.54) rotate(4.96) translate(-120 -168)"/><use xlink:href="#cb" transform="translate(948.32 596.51) rotate(-5.57) translate(-120 -168)"/><use xlink:href="#cb" transform="translate(947.22 594.10) rotate(-4.27) translate(-120 -168)"/><use xlink:href="#cb" transform="translate(964.93 595.22) rotate(4.37) translate(-120 -168)"/><use xlink:href="#cb" transform="translate(949.79 593.24) rotate(-2.82) translate(-120 -168)"/><use xlink:href="#cb" transform="translate(966.45 592.46) rotate(5.22) translate(-120 -168)"/><use xlink:href="#cb" transform="translate(951.91 593.03) rotate(-6.96) translate(-120 -168)"/><use xlink:href="#cb" transform="translate(950.11 595.62) rotate(-3.76) translate(-120 -168)"/><use xlink:href="#cb" transform="translate(963.57 592.60) rotate(4.87) translate(-120 -168)"/><use xlink:href="#cb" transform="translate(951.10 591.49) rotate(-4.77) translate(-120 -168)"/><use xlink:href="#cb" transform="translate(951.93 589.71) rotate(-5.65) translate(-120 -168)"/><use xlink:href="#cb" transform="translate(964.04 590.78) rotate(4.81) translate(-120 -168)"/><use xlink:href="#cb" transform="translate(951.72 589.63) rotate(-2.82) translate(-120 -168)"/><use xlink:href="#cb" transform="translate(967.64 590.86) rotate(5.81) translate(-120 -168)"/><use xlink:href="#cb" transform="translate(967.31 588.92) rotate(7.03) translate(-120 -168)"/><use xlink:href="#cb" transform="translate(949.42 589.30) rotate(-5.33) translate(-120 -168)"/><use xlink:href="#cb" transform="translate(972.22 588.46) rotate(2.69) translate(-120 -168)"/><use xlink:href="#cb" transform="translate(955.31 586.70) rotate(-5.63) translate(-120 -168)"/><use xlink:href="#cb" transform="translate(969.72 589.36) rotate(3.96) translate(-120 -168)"/><use xlink:href="#cb" transform="translate(955.99 585.36) rotate(-5.47) translate(-120 -168)"/><use xlink:href="#cb" transform="translate(968.80 586.16) rotate(6.50) translate(-120 -168)"/><use xlink:href="#cb" transform="translate(956.34 588.88) rotate(-2.53) translate(-120 -168)"/><use xlink:href="#cb" transform="translate(973.31 585.68) rotate(6.16) translate(-120 -168)"/><use xlink:href="#cb" transform="translate(957.35 586.78) rotate(-5.26) translate(-120 -168)"/><use xlink:href="#cb" transform="translate(957.39 585.87) rotate(-7.28) translate(-120 -168)"/><use xlink:href="#cb" transform="translate(972.90 585.94) rotate(6.73) translate(-120 -168)"/><use xlink:href="#cb" transform="translate(972.11 585.70) rotate(2.65) translate(-120 -168)"/><use xlink:href="#cb" transform="translate(972.23 585.60) rotate(2.93) translate(-120 -168)"/><use xlink:href="#cb" transform="translate(956.64 585.86) rotate(-5.88) translate(-120 -168)"/><use xlink:href="#cb" transform="translate(971.87 586.84) rotate(5.49) translate(-120 -168)"/><use xlink:href="#cb" transform="translate(957.64 580.90) rotate(-4.42) translate(-120 -168)"/><use xlink:href="#cb" transform="translate(974.15 584.77) rotate(4.76) translate(-120 -168)"/><use xlink:href="#cb" transform="translate(956.47 580.27) rotate(-6.55) translate(-120 -168)"/><use xlink:href="#cb" transform="translate(970.90 583.85) rotate(4.22) translate(-120 -168)"/><use xlink:href="#cb" transform="translate(974.01 580.57) rotate(4.43) translate(-120 -168)"/><use xlink:href="#cb" transform="translate(956.23 582.24) rotate(-3.01) translate(-120 -168)"/><use xlink:href="#cb" transform="translate(957.82 581.21) rotate(-5.05) translate(-120 -168)"/><use xlink:href="#cb" transform="translate(971.52 581.18) rotate(7.27) translate(-120 -168)"/><use xlink:href="#cb" transform="translate(962.04 577.76) rotate(-3.42) translate(-120 -168)"/><use xlink:href="#cb" transform="translate(977.42 579.51) rotate(4.84) translate(-120 -168)"/></svg>