<svg xmlns="http://www.w3.org/2000/svg" xmlns:xlink="http://www.w3.org/1999/xlink" width="1920" height="1080" viewBox="0 0 1920 1080" role="img"><title>Riffle shuffle</title><defs><pattern id="back" width="12" height="12" patternUnits="userSpaceOnUse"><path d="M0 6L6 0L12 6L6 12Z" fill="none" stroke="#8fa1c5" stroke-width="1"/></pattern><pattern id="felt" width="10" height="10" patternUnits="userSpaceOnUse"><path d="M1 2h1M6 7h1" stroke="#ffffff" stroke-opacity=".035"/></pattern><g id="cb"><g opacity="1"><rect x="5.00" y="6.00" width="240.00" height="336.00" rx="7" fill="#001e18" opacity="0.28"/><rect x="0.00" y="0.00" width="240.00" height="336.00" rx="7" fill="#fbfaf4" stroke="#c9c7bd" stroke-width="1.5"/><rect x="8.00" y="8.00" width="224.00" height="320.00" rx="2" fill="#223b72"/><rect x="12.00" y="12.00" width="216.00" height="312.00" rx="0" fill="url(#back)"/><rect x="17.00" y="17.00" width="206.00" height="302.00" rx="0" fill="none" stroke="#c5cfdf" stroke-width="1"/></g></g></defs><rect x="0" y="0" width="1920" height="1080" fill="#0b6b3a"/><rect x="0" y="0" width="1920" height="1080" fill="url(#felt)"/><use xlink:href="#cb" transform="translate(961.96 602.07) rotate(4.84) translate(-120 -168)"/><use xlink:href="#cb" transform="translate(941.66 604.61) rotate(-7.35) translate(-120 -168)"/><use xlink:href="#cb" transform="translate(964.12 602.84) rotate(3.45) translate(-120 -168)"/><use xlink:href="#cb" transform="translate(943.46 600.96) rotate(-3.82) translate(-120 -168)"/><use xlink:href="#cb" transform="translate(964.25 601.55) rotate(5.68) translate(-120 -168)"/><use xlink:href="#cb" transform="translate(947.85 601.71) rotate(-6.96) translate(-120 -168)"/><use xlink:href="#cb" transform="translate(944.05 601.00) rotate(-5.22) translate(-120 -168)"/><use xlink:href="#cb" transform="translate(962.75 602.44) rotate(2.66) translate(-120 -168)"/><use xlink:href="#cb" transform="translate(961.12 599.64) rotate(7.30) translate(-120 -168)"/><use xlink:href="#cb" transform="translate(963.95 598.33) rotate(6.49) translate(-120 -168)"/><use xlink:href="#cb" transform="translate(947.42 597.00) rotate(-6.94) translate(-120 -168)"/><use xlink:href="#cb" transform="translate(951.29 598.66) rotate(-6.19) translate(-120 -168)"/><use xlink:href="#cb" transform="translate(962.72 599.03) rotate(5.10) translate(-120 -168)"/><use xlink:href="#cb" transform="translate(948.09 597.98) rotate(-5.73) translate(-120 -168)"/><use xlink:href="#cb" transform="translate(946.95 595.52) rotate(-4.39) translate(-120 -168)"/><use xlink:href="#cb" transform="translate(965.16 596.68) rotate(4.50) translate(-120 -168)"/><use xlink:href="#cb" transform="translate(949.58 594.66) rotate(-2.90) translate(-120 -168)"/><use xlink:href="#cb" transform="translate(966.71 593.87) rotate(5.37) translate(-120 -168)"/><use xlink:href="#cb" transform="translate(951.74 594.47) rotate(-7.16) translate(-120 -168)"/><use xlink:href="#cb" transform="translate(949.88 597.14) rotate(-3.87) translate(-120 -168)"/><use xlink:href="#cb" transform="translate(963.72 594.05) rotate(5.01) translate(-120 -168)"/><use xlink:href="#cb" transform="translate(950.88 592.92) rotate(-4.90) translate(-120 -168)"/><use xlink:href="#cb" transform="translate(951.73 591.09) rotate(-5.81) translate(-120 -168)"/><use xlink:href="#cb" transform="translate(964.18 592.21) rotate(4.95) translate(-120 -168)"/><use xlink:href="#cb" transform="translate(951.50 591.04) rotate(-2.90) translate(-120 -168)"/><use xlink:href="#cb" transform="translate(967.87 592.32) rotate(5.97) translate(-120 -168)"/><use xlink:href="#cb" transform="translate(967.51 590.33) rotate(7.23) translate(-120 -168)"/><use xlink:href="#cb" transform="translate(949.11 590.74) rotate(-5.49) translate(-120 -168)"/><use xlink:href="#cb" transform="translate(972.55 589.89) rotate(2.77) translate(-120 -168)"/><use xlink:href="#cb" transform="translate(955.14 588.08) rotate(-5.79) translate(-120 -168)"/><use xlink:href="#cb" transform="translate(969.96 590.84) rotate(4.07) translate(-120 -168)"/><use xlink:href="#cb" transform="translate(955.83 586.73) rotate(-5.63) translate(-120 -168)"/><use xlink:href="#cb" transform="translate(969.00 587.56) rotate(6.68) translate(-120 -168)"/><use xlink:href="#cb" transform="translate(956.17 590.38) rotate(-2.60) translate(-120 -168)"/><use xlink:href="#cb" transform="translate(973.62 587.10) rotate(6.34) translate(-120 -168)"/><use xlink:href="#cb" transform="translate(957.19 588.24) rotate(-5.41) translate(-120 -168)"/><use xlink:href="#cb" transform="translate(957.22 587.31) rotate(-7.49) translate(-120 -168)"/><use xlink:href="#cb" transform="translate(973.17 587.41) rotate(6.92) translate(-120 -168)"/><use xlink:href="#cb" transform="translate(972.35 587.17) rotate(2.73) translate(-120 -168)"/><use xlink:href="#cb" transform="translate(972.47 587.07) rotate(3.01) translate(-120 -168)"/><use xlink:href="#cb" transform="translate(956.41 587.36) rotate(-6.05) translate(-120 -168)"/><use xlink:href="#cb" transform="translate(972.08 588.37) rotate(5.65) translate(-120 -168)"/><use xlink:href="#cb" transform="translate(957.43 582.27) rotate(-4.55) translate(-120 -168)"/><use xlink:href="#cb" transform="translate(974.41 586.27) rotate(4.90) translate(-120 -168)"/><use xlink:href="#cb" transform="translate(956.21 581.65) rotate(-6.74) translate(-120 -168)"/><use xlink:href="#cb" transform="translate(971.05 585.35) rotate(4.34) translate(-120 -168)"/><use xlink:href="#cb" transform="translate(974.23 581.99) rotate(4.56) translate(-120 -168)"/><use xlink:href="#cb" transform="translate(955.93 583.71) rotate(-3.09) translate(-120 -168)"/><use xlink:href="#cb" transform="translate(957.56 582.66) rotate(-5.19) translate(-120 -168)"/><use xlink:href="#cb" transform="translate(971.66 580.26) rotate(7.48) scale(1.002 1.002) translate(-120 -168)"/><use xlink:href="#cb" transform="translate(954.80 512.57) rotate(-3.69) scale(1.043 1.043) translate(-120 -168)"/><use xlink:href="#cb" transform="translate(1002.97 457.67) rotate(5.52) scale(1.077 1.077) translate(-120 -168)"/></svg>